<?xml version="1.0" encoding="UTF-8"?>
<svg width="100pt" height="100pt" version="1.1" viewBox="0 0 100 100" xmlns="http://www.w3.org/2000/svg">
 <g fill="none" stroke="#222222" stroke-miterlimit="10" stroke-width="2">
  <path transform="scale(2)" d="m2 2h46v46h-46z"/>
  <path transform="scale(2)" d="m2 10h46"/>
  <path transform="scale(2)" d="m45 6h-2"/>
  <path transform="scale(2)" d="m41 6h-2"/>
  <path transform="scale(2)" d="m37 6h-2"/>
  <path transform="scale(2)" d="m6 15h10v16h-10z"/>
  <path transform="scale(2)" d="m20 15h10v16h-10z"/>
  <path transform="scale(2)" d="m34 15h10v16h-10z"/>
  <path transform="scale(2)" d="m8.1992 39c0-0.099609 0-0.19922 0.099609-0.19922 0.70117 0.29883 2.7012 0.79883 4.7012-0.80078 0 0 2.4004-1.8008 4.4004-0.40039 1 0.69922 1.3008 2.0996 0.80078 3.3008-0.40039 0.90039-1.3008 1.5-2.3008 1.8008-1.9004 0.39844-5.3008 0.39844-7.7012-3.7012z"/>
  <path transform="scale(2)" d="m26.4 37c6.5996 0 16 1.3008 16 3s-9.4004 3-16 3c-6.5996 0-8-1.3008-8-3s1.4004-3 8-3z"/>
  <path transform="scale(2)" d="m6 6h25"/>
 </g>
</svg>
